<svg id="visual" viewBox="0 0 900 600" width="900" height="600" xmlns="http://www.w3.org/2000/svg" xmlns:xlink="http://www.w3.org/1999/xlink" version="1.1"><rect x="0" y="0" width="900" height="600" fill="#FFFFFF"></rect><defs><linearGradient id="grad1_0" x1="33.3%" y1="0%" x2="100%" y2="100%"><stop offset="20%" stop-color="#ffffff" stop-opacity="1"></stop><stop offset="80%" stop-color="#ffffff" stop-opacity="1"></stop></linearGradient></defs><defs><linearGradient id="grad2_0" x1="0%" y1="0%" x2="66.7%" y2="100%"><stop offset="20%" stop-color="#ffffff" stop-opacity="1"></stop><stop offset="80%" stop-color="#ffffff" stop-opacity="1"></stop></linearGradient></defs><g transform="translate(900, 0)"><path d="M0 324.5C-53.7 311.3 -107.5 298.2 -157.5 272.8C-207.5 247.4 -253.8 209.8 -281 162.2C-308.2 114.7 -316.4 57.4 -324.5 0L0 0Z" fill="#899878"></path></g><g transform="translate(0, 600)"><path d="M0 -324.5C53.7 -311.3 107.5 -298.2 157.5 -272.8C207.5 -247.4 253.8 -209.8 281 -162.2C308.2 -114.7 316.4 -57.4 324.5 0L0 0Z" fill="#899878"></path></g></svg>